<svg id="logo" width="231" height="209" xmlns="http://www.w3.org/2000/svg">
 <!-- Created with Method Draw - http://github.com/duopixel/Method-Draw/ -->
 <g>
  <title>background</title>
  <rect fill="none" id="canvas_background" height="211" width="233" y="-1" x="-1"/>
  <g display="none" overflow="visible" y="0" x="0" height="100%" width="100%" id="canvasGrid">
   <rect fill="url(#gridpattern)" stroke-width="0" y="0" x="0" height="100%" width="100%"/>
  </g>
 </g>
 <g>

  <title>Layer 1</title>
  <path id="svg_6" d="m202.47081,202.287c0,3.01794 -2.4328,5.463 -5.43564,5.463l-34.80834,0c-3.00282,0 -5.43563,-2.44505 -5.43563,-5.463l0,-74.32394c0,-3.01771 2.4328,-5.463 5.43563,-5.463l34.80834,0c3.00284,0 5.43564,2.44529 5.43564,5.463l0,74.32394zm-128.8701,0c0,3.01794 -2.43328,5.463 -5.43563,5.463l-34.80882,0c-3.00235,0 -5.43562,-2.44505 -5.43562,-5.463l0,-74.32394c0,-3.01771 2.43327,-5.463 5.43562,-5.463l34.80882,0c3.00235,0 5.43563,2.44529 5.43563,5.463l0,74.32394zm42.05319,-201.53701c-62.98745,0 -114.11866,50.92396 -114.90391,114.03542l19.94131,0c0.64662,-52.16232 42.90798,-94.24946 94.9626,-94.24946c52.05461,0 94.316,42.08714 94.95506,94.24946l19.94084,0c-0.77725,-63.11146 -51.9235,-114.03542 -114.89591,-114.03542l0.00001,0zm-114.74225,171.84612l19.57946,0l0,-57.92688l-19.57946,0l0,57.92688zm209.53568,-57.93468l0,57.92713l20.30266,0l0,-57.92713l-20.30266,0z" stroke-opacity="null" stroke-width="1.5" stroke="#000" fill="#2d2c2c"/>
  <path stroke="#000" transform="rotate(1.7807749509811401 181.7946014404293,162.11259460449213) " id="svg_10" d="m169.40356,160.59468c0,0 -4.07749,1.04861 -5.04591,4.67377c0,0 -0.86646,1.40813 -0.61162,2.15713c0.25483,0.74899 0.6626,0.98867 0.76453,1.07856c0,0 -0.5097,-0.68909 1.22324,-1.79761c0,0 0.89196,-0.17976 1.07035,-0.35952c0.17839,-0.17976 2.80327,-0.77896 3.36394,0.71904c0.56065,1.49802 0.68807,4.01465 0.61162,4.13449c-0.07645,0.11983 -2.67586,2.39682 -2.90521,3.05593c-0.22936,0.65911 -1.45261,2.0073 -1.98779,1.97736c-0.53516,-0.02995 -1.80939,-0.02995 -2.14068,-0.53928c-0.33128,-0.50933 -1.2997,-0.56924 -1.52906,0c-0.22936,0.56923 -0.15291,0.53928 -0.15291,0.53928c0,0 -0.8155,-0.20971 -1.07035,0.53928c-0.25483,0.749 0.38228,1.07856 0.45873,1.07856c0.07645,0 -0.4842,-1.13848 0.30582,-0.8988c0,0 0.45871,0.02248 0.45871,-0.17976c0,-0.20224 -0.26759,1.0561 0,1.07856c0,0 0.89833,-1.16843 1.07035,-0.53928c0,0 0.57339,0.13482 0.76453,0.17976c0.19113,0.04494 0.15291,0.17976 0.15291,0.17976c0,0 0.49694,0.2247 0.15289,0.8988c0,0 0,0.24717 0.15291,0.35954c0.15291,0.11235 -0.09557,0.65163 -0.76453,0.17976c0,0 -0.17202,-0.17976 -0.15291,0c0.01912,0.17976 0.68808,1.14597 1.52906,-0.17976c0,0 0.30582,-1.01116 -0.15291,-1.25833c-0.45871,-0.24717 0.15291,-0.74151 0.76453,-0.35952c0,0 0.03823,0.71904 -0.15289,0.8988c-0.19114,0.17976 0.32493,0.02248 0.45871,-0.17976c0.13379,-0.20222 0.30582,0.42693 0.30582,0.53928c0,0.11235 0.17202,0.49434 0.3058,0.35954c0.1338,-0.13482 1.39527,-0.29212 1.37617,-0.17978c-0.01912,0.11236 0.5925,0.58423 0.76453,0.35954c0.17202,-0.22471 1.12767,-1.37068 1.22324,-1.25833c0.09557,0.11235 -0.64985,1.37068 -1.07035,1.61785c-0.42048,0.24716 -2.17891,0.40446 -2.7523,-0.17976c0,0 -0.87921,-0.20224 -0.91744,0c0,0 -0.99389,0.47187 -0.91744,0.71904c0.07646,0.24717 0.07646,0.11235 0.15291,0c0.07645,-0.11236 0.70719,-0.51682 0.76453,-0.35952c0.05734,0.15728 0,0.17976 0,0.17976c0,0 -0.80276,0.26963 -0.76453,0.35952c0,0 -0.93655,0.44939 -0.76453,1.43808c0,0 0.2867,0.24717 0.30582,0c0.01911,-0.24717 -0.11468,-0.92127 0.45871,-0.8988c0,0 0.09557,0.35952 0.45871,0.17976c0.36316,-0.17976 -0.21023,-0.56176 1.68197,-0.35952c0,0 -0.07645,0.42693 -0.3058,0.53928c-0.22936,0.11235 -0.61164,0.11235 -0.61164,0.53928c0,0 -0.24846,0.35952 0,0.71904c0,0 0.15291,0.11235 0.15291,0c0,-0.11235 -0.15291,-0.65163 0.61162,-0.8988c0.76454,-0.24717 0.61164,-0.17976 0.61164,-0.17976c0,0 -0.1338,1.07856 0.15291,1.07856c0.2867,0 -0.19114,0.6741 -0.76454,0.35952c0,0 -0.05733,-0.26963 -0.15289,-0.17976c-0.09557,0.08989 0.47782,1.39314 1.52906,-0.17976c0,0 0.34403,-0.83139 0,-1.07856c0,0 -0.22936,-0.83139 0.91744,-0.53928c0,0 0.47782,0.08987 0.45871,0c-0.01911,-0.08989 0.07645,0.42693 0,0.53928c-0.07645,0.11235 0.89833,-0.24717 0.91744,-0.35952l0.3058,0c0,0 -0.17839,1.04861 -0.3058,1.07856c-0.12742,0.02995 0.58613,-0.50933 0.76453,-0.8988c0,0 0,0.74899 -0.15291,0.8988c-0.15291,0.14981 0.68808,-0.80893 0.61162,-0.8988c0,0 -0.02548,0.95872 -0.3058,1.43808c-0.28033,0.47935 0.61162,-0.44939 0.76453,-0.71904c0,0 0.15289,0.11983 0,0.35952c-0.15291,0.23969 0.50968,-0.23969 0.61162,-0.8988c0,0 0.43323,-0.41944 0.61162,-0.53928c0,0 -0.02548,1.01863 -0.15291,1.07856c0,0 0.35679,-0.32957 0.45873,-0.71904c0,0 0.20386,0.35952 0.15291,0.53928c0,0 0.58613,-0.77896 0.76453,-1.43808c0.17839,-0.65911 0.15289,0.17976 0.15289,0.17976c0,0 0.35679,-0.05994 0.61164,-1.25832c0,0 1.47809,1.82754 1.98777,1.97736c0.50968,0.1498 -0.61162,-0.71904 -0.61162,-0.71904c0,0 0.84098,0.29959 0.91744,0.53928c0,0 -0.07646,-0.32957 -0.45873,-0.71904c-0.38227,-0.38948 0.45873,-0.17976 0.45873,-0.17976c0,0 0.17839,-0.05994 0.15289,-1.97737c0,0 1.14681,1.43809 1.83488,1.43809c0.68808,0 -0.63711,-0.59922 -0.76453,-1.07857c-0.12742,-0.47935 0.28033,-0.32956 0.45873,-0.17976c0.17839,0.14981 1.50357,1.04861 1.52906,1.25833c0.02548,0.20971 0.15289,-0.35952 0.15289,-0.35952c0,0 0.30582,0.17976 0.61164,0.17976c0.3058,0 -0.89195,-0.65911 -1.07035,-1.07857c-0.1784,-0.41944 1.65648,0.749 2.29359,1.25833c0,0 0.53517,0.20971 0.61162,0c0.07646,-0.20972 -0.91744,-1.01863 -0.91744,-1.07857c0,-0.05993 -0.35677,-0.56923 0.30582,-0.17976c0.66259,0.38948 1.52906,0.08989 2.14068,0.35952c0.61164,0.26965 1.27421,1.10852 2.1407,1.07857c0.86647,-0.02996 0.86626,1.25832 2.44649,1.25832c0.91744,0 0.53517,0.41944 0.91744,0.35952c0.38227,-0.05993 -0.45871,-0.53928 -0.45871,-0.53928c0,0 0.91744,0.35952 1.07033,0.35952c0.15291,0 0.84099,0.02995 -0.76452,-0.71904c0,0 1.17227,0 0.76452,-0.17976c-0.40774,-0.17976 -1.42712,-0.53928 -1.37615,-0.71904c0.05098,-0.17976 1.09583,-0.14981 0.76453,-0.35952c-0.33128,-0.20972 -2.14068,-0.98869 -1.68197,-1.07857c0.45873,-0.08987 1.12132,-0.11983 0.76453,-0.35952c-0.35679,-0.23969 -4.74008,-0.80891 -5.35171,-1.43808c-0.61162,-0.62917 -2.19165,-2.45671 -2.59939,-2.51664c-0.40776,-0.05994 0,-0.50933 0.3058,-0.35954c0.30582,0.14981 0.58614,-0.08987 0.45873,-1.07856c-0.12743,-0.98867 1.3115,2.16805 2.14068,1.07856c0.43323,-0.56923 0.10194,-0.98867 0.61162,-0.8988c0.50968,0.08989 0.4842,-0.65911 0.61162,-0.35952c0.12742,0.29959 1.19777,2.15713 1.68197,1.97737c0.4842,-0.17976 0.12742,-0.29959 0.45873,-0.35952c0.3313,-0.05994 0.56065,-0.17976 0.61162,-0.5393c0.05097,-0.35952 0.35677,0.2397 0.45871,-0.35952c0.10194,-0.5992 0.17839,-1.34819 0.61162,-0.71904c0.43325,0.62917 0.58616,0.20972 0.61164,0c0.02548,-0.20971 0.94292,0.11983 0.91743,-0.53928c-0.02546,-0.65911 0.89196,0.20972 0.76454,-0.53928c-0.12743,-0.74899 0.77503,-0.10151 0.61162,-0.71904c-0.35679,-1.34821 1.22324,-0.11983 1.07033,-0.71904c-0.15289,-0.5992 0.73905,-0.11983 0.61164,-0.71904c-0.12743,-0.5992 0.8485,-0.39108 0.76453,-0.8988c-0.17839,-1.07857 0.91743,-0.32957 0.76453,-1.25833c-0.15291,-0.92874 0.69584,-0.00623 0.61162,-0.71904c-0.12743,-1.07856 1.09221,-0.68689 0.76453,-1.43808c-0.5097,-1.16845 0.52409,-0.66616 0.30582,-1.25832c-0.3313,-0.8988 2.12858,0.09971 1.52906,-1.43809c-0.28034,-0.71904 1.66491,-1.19777 0.76453,-1.7976c-1.52906,-1.01863 2.34455,-0.50933 0.45871,-2.15712c-1.75842,-0.95872 -1.86617,-1.04902 0.30582,-0.8988c0.86647,0.05993 2.16617,-1.34821 0.91743,-1.43809c-1.24873,-0.08987 -3.79716,-0.80891 -0.91743,-1.07856c2.87972,-0.26963 2.98166,-1.498 1.83486,-1.43808c-1.1468,0.05993 -5.63204,0.05993 -4.43427,-0.35952c1.19777,-0.41944 6.67931,-1.44452 4.58718,-2.51664c-0.99389,-0.50933 -7.99722,2.19877 -5.96333,0.35952c0.33128,-0.29959 3.5678,-1.37817 4.74009,-2.87617c1.17227,-1.498 0.94292,-1.70773 0.3058,-1.43808c-0.63711,0.26963 -8.02753,4.22436 -6.88077,2.87615c0.20388,-0.23969 4.43427,-2.60652 5.04591,-4.67375c0.61162,-2.06724 0.02548,-1.52797 -0.45873,-0.89881c-0.48419,0.62917 -7.43827,6.63728 -6.26915,4.67377c0.35679,-0.5992 3.46586,-2.99599 4.12847,-5.39281c0.6626,-2.3968 0.15291,-1.73767 -0.30582,-1.07856c-0.45871,0.65911 -7.54475,9.63909 -6.42205,6.47137c0.25483,-0.71904 2.49747,-2.96604 2.7523,-5.03329c0.25483,-2.06724 -0.40774,-1.28826 -0.76453,-0.53928c-0.35679,0.749 -5.3772,10.06658 -5.50462,8.44874c0,0 -0.02549,0.02995 -0.15291,0c-0.12742,-0.02996 0.10194,-0.86885 -0.15291,-0.71904c0,0 -0.10194,-0.65911 -0.3058,-0.5393c-0.20388,0.11983 -0.40776,0.02996 -0.45873,-0.71904c-0.05096,-0.74899 -1.55454,0.11983 -1.98777,3.95473c0,0 -0.30582,0.38899 -0.30582,1.25832c0,0.44941 -1.83486,2.63649 -2.90521,2.51665c-1.07035,-0.11983 -2.59941,2.51664 -3.05812,2.6964c-0.45871,0.17976 -1.47809,1.25832 -3.05812,0.17976c-1.58003,-1.07856 -3.13458,-1.43808 -1.83488,-1.61784c1.2997,-0.17976 1.04486,-0.77896 0.45871,-0.8988c-0.58613,-0.11983 -3.13457,-0.17976 -2.29359,-0.71904c0.84099,-0.5393 1.56746,-3.42053 0.45873,-2.69641c-0.45873,0.29959 -2.08781,2.96183 -1.83488,1.07856c0.07646,-0.56923 1.07035,-1.25832 0.76453,-3.23567c-0.3058,-1.97737 -0.7298,-0.40424 -0.76453,-0.17976c-0.05097,0.32956 -1.28729,4.42124 -1.52906,2.33688c-0.07645,-0.65911 0.56065,-1.52797 0.30582,-3.95473c-0.25483,-2.42675 -0.61162,0 -0.61162,0c0,0 -0.72712,2.48517 -0.61164,3.77497c0.05098,0.56924 -0.66259,0.35952 -0.61162,-0.71904c0.05098,-1.07856 0.43323,-3.4454 0.15291,-3.41545c-0.28034,0.02996 -1.12026,1.60451 -0.91744,2.87617c0.07646,0.47935 -1.09583,0.95872 0.15291,1.97736c1.24872,1.01863 2.59941,3.05593 2.59941,3.05593c0,0 -0.30212,1.31666 1.22324,1.97736c0.96841,0.41944 0.15291,1.25832 0.15291,1.25832z" stroke-opacity="null" stroke-width="1.5" fill="#ffffff"/>
  <path stroke="#000" transform="rotate(1.7807749509811401 50.145797729491946,161.39817810058608) " id="svg_11" d="m62.32881,159.88031c0,0 4.00903,1.04861 4.9612,4.67376c0,0 0.85191,1.40814 0.60135,2.15714c-0.25056,0.74898 -0.65148,0.98867 -0.7517,1.07855c0,0 0.50114,-0.68909 -1.2027,-1.79761c0,0 -0.87699,-0.17976 -1.05238,-0.35952c-0.1754,-0.17976 -2.75622,-0.77896 -3.30747,0.71904c-0.55124,1.49802 -0.67652,4.01466 -0.60135,4.13449c0.07516,0.11983 2.63093,2.39682 2.85644,3.05593c0.2255,0.65911 1.42822,2.0073 1.95441,1.97736c0.52618,-0.02995 1.77902,-0.02995 2.10475,-0.53928c0.32572,-0.50933 1.27789,-0.56924 1.50339,0c0.22551,0.56922 0.15034,0.53928 0.15034,0.53928c0,0 0.80181,-0.20971 1.05238,0.53928c0.25056,0.749 -0.37586,1.07855 -0.45102,1.07855c-0.07517,0 0.47607,-1.13848 -0.30069,-0.89879c0,0 -0.45101,0.02247 -0.45101,-0.17976c0,-0.20224 0.2631,1.0561 0,1.07855c0,0 -0.88325,-1.16842 -1.05238,-0.53927c0,0 -0.56376,0.13482 -0.75169,0.17976c-0.18792,0.04493 -0.15035,0.17976 -0.15035,0.17976c0,0 -0.4886,0.22469 -0.15032,0.89879c0,0 0,0.24718 -0.15035,0.35954c-0.15034,0.11235 0.09397,0.65163 0.7517,0.17976c0,0 0.16913,-0.17976 0.15034,0c-0.0188,0.17976 -0.67653,1.14597 -1.50339,-0.17976c0,0 -0.30068,-1.01116 0.15034,-1.25833c0.45101,-0.24718 -0.15034,-0.74152 -0.75169,-0.35952c0,0 -0.03759,0.71903 0.15032,0.89879c0.18794,0.17976 -0.31947,0.02248 -0.45101,-0.17976c-0.13154,-0.20221 -0.30068,0.42694 -0.30068,0.53928c0,0.11235 -0.16913,0.49435 -0.30067,0.35954c-0.13156,-0.13482 -1.37185,-0.29212 -1.35306,-0.17978c0.0188,0.11237 -0.58256,0.58423 -0.7517,0.35954c-0.16913,-0.22471 -1.10874,-1.37068 -1.20271,-1.25834c-0.09396,0.11235 0.63894,1.37069 1.05238,1.61786c0.41342,0.24715 2.14234,0.40445 2.7061,-0.17976c0,0 0.86445,-0.20224 0.90204,0c0,0 0.9772,0.47187 0.90204,0.71904c-0.07518,0.24717 -0.07518,0.11235 -0.15035,0c-0.07516,-0.11237 -0.69532,-0.51682 -0.75169,-0.35952c-0.05638,0.15728 0,0.17976 0,0.17976c0,0 0.78928,0.26963 0.75169,0.35952c0,0 0.92083,0.44939 0.7517,1.43807c0,0 -0.28188,0.24718 -0.30068,0c-0.01879,-0.24717 0.11275,-0.92127 -0.45102,-0.89879c0,0 -0.09396,0.35952 -0.45101,0.17976c-0.35706,-0.17976 0.20671,-0.56176 -1.65373,-0.35952c0,0 0.07516,0.42693 0.30067,0.53928c0.2255,0.11234 0.60137,0.11234 0.60137,0.53927c0,0 0.24429,0.35952 0,0.71904c0,0 -0.15035,0.11235 -0.15035,0c0,-0.11234 0.15035,-0.65162 -0.60135,-0.89879c-0.75171,-0.24718 -0.60137,-0.17976 -0.60137,-0.17976c0,0 0.13156,1.07855 -0.15034,1.07855c-0.28188,0 0.18793,0.67411 0.75171,0.35952c0,0 0.05636,-0.26963 0.15033,-0.17976c0.09396,0.08989 -0.4698,1.39314 -1.50339,-0.17976c0,0 -0.33826,-0.83138 0,-1.07855c0,0 0.2255,-0.83139 -0.90204,-0.53928c0,0 -0.4698,0.08987 -0.45101,0c0.01879,-0.08989 -0.07517,0.42693 0,0.53928c0.07516,0.11234 -0.88325,-0.24718 -0.90204,-0.35952l-0.30067,0c0,0 0.17539,1.04861 0.30067,1.07855c0.12528,0.02995 -0.57629,-0.50933 -0.7517,-0.89879c0,0 0,0.74898 0.15035,0.89879c0.15034,0.14982 -0.67654,-0.80892 -0.60136,-0.89879c0,0 0.02505,0.95872 0.30067,1.43807c0.27562,0.47936 -0.60135,-0.44939 -0.75169,-0.71904c0,0 -0.15033,0.11984 0,0.35952c0.15034,0.23969 -0.50113,-0.23968 -0.60136,-0.89879c0,0 -0.42596,-0.41945 -0.60135,-0.53928c0,0 0.02505,1.01863 0.15034,1.07855c0,0 -0.3508,-0.32957 -0.45102,-0.71903c0,0 -0.20045,0.35952 -0.15035,0.53927c0,0 -0.57629,-0.77896 -0.75169,-1.43807c-0.17539,-0.65912 -0.15033,0.17976 -0.15033,0.17976c0,0 -0.3508,-0.05994 -0.60137,-1.25832c0,0 -1.45328,1.82754 -1.9544,1.97736c-0.50113,0.14979 0.60135,-0.71904 0.60135,-0.71904c0,0 -0.82686,0.29959 -0.90204,0.53928c0,0 0.07518,-0.32958 0.45103,-0.71904c0.37585,-0.38948 -0.45103,-0.17976 -0.45103,-0.17976c0,0 -0.17539,-0.05994 -0.15032,-1.97738c0,0 -1.12756,1.4381 -1.80408,1.4381c-0.67653,0 0.62642,-0.59922 0.7517,-1.07858c0.12528,-0.47935 -0.27562,-0.32955 -0.45103,-0.17976c-0.17539,0.14982 -1.47833,1.04862 -1.50339,1.25834c-0.02505,0.2097 -0.15033,-0.35952 -0.15033,-0.35952c0,0 -0.30068,0.17976 -0.60137,0.17976c-0.30067,0 0.87698,-0.65911 1.05238,-1.07858c0.17541,-0.41944 -1.62867,0.74901 -2.25508,1.25834c0,0 -0.52619,0.2097 -0.60136,0c-0.07518,-0.20972 0.90204,-1.01863 0.90204,-1.07858c0,-0.05992 0.35078,-0.56922 -0.30068,-0.17976c-0.65147,0.38949 -1.50339,0.08989 -2.10475,0.35952c-0.60137,0.26965 -1.25282,1.10852 -2.10476,1.07858c-0.85192,-0.02996 -0.85172,1.25832 -2.40541,1.25832c-0.90204,0 -0.52619,0.41944 -0.90204,0.35952c-0.37585,-0.05993 0.45101,-0.53928 0.45101,-0.53928c0,0 -0.90204,0.35952 -1.05236,0.35952c-0.15035,0 -0.82688,0.02994 0.75168,-0.71904c0,0 -1.1526,0 -0.75168,-0.17976c0.40089,-0.17976 1.40316,-0.53928 1.35304,-0.71904c-0.05012,-0.17976 -1.07742,-0.14981 -0.75169,-0.35952c0.32572,-0.20972 2.10474,-0.98869 1.65373,-1.07858c-0.45102,-0.08987 -1.10249,-0.11983 -0.75169,-0.35951c0.35079,-0.23969 4.6605,-0.80892 5.26187,-1.43808c0.60135,-0.62917 2.15486,-2.45671 2.55575,-2.51664c0.40092,-0.05994 0,-0.50933 -0.30067,-0.35953c-0.30068,0.14981 -0.5763,-0.08988 -0.45102,-1.07856c0.12529,-0.98867 -1.28948,2.16805 -2.10475,1.07856c-0.42596,-0.56923 -0.10022,-0.98867 -0.60135,-0.8988c-0.50113,0.08989 -0.47608,-0.65912 -0.60135,-0.35952c-0.12528,0.29959 -1.17766,2.15713 -1.65374,1.97737c-0.47607,-0.17976 -0.12528,-0.29959 -0.45102,-0.35952c-0.32574,-0.05994 -0.55124,-0.17976 -0.60136,-0.53929c-0.05011,-0.35952 -0.35078,0.2397 -0.45101,-0.35952c-0.10023,-0.59921 -0.17539,-1.34819 -0.60135,-0.71904c-0.42598,0.62917 -0.57632,0.20972 -0.60137,0c-0.02505,-0.20971 -0.92709,0.11983 -0.90202,-0.53928c0.02503,-0.65911 -0.87699,0.20972 -0.75171,-0.53928c0.12529,-0.74898 -0.76202,-0.10151 -0.60136,-0.71904c0.3508,-1.3482 -1.20271,-0.11983 -1.05236,-0.71904c0.15032,-0.5992 -0.72665,-0.11983 -0.60137,-0.71904c0.12529,-0.5992 -0.83426,-0.39108 -0.7517,-0.89879c0.1754,-1.07858 -0.90202,-0.32958 -0.75169,-1.25834c0.15034,-0.92874 -0.68416,-0.00623 -0.60136,-0.71904c0.1253,-1.07856 -1.07387,-0.68688 -0.75169,-1.43807c0.50114,-1.16845 -0.51529,-0.66616 -0.30069,-1.25832c0.32574,-0.8988 -2.09285,0.09971 -1.50339,-1.4381c0.27564,-0.71903 -1.63695,-1.19777 -0.75169,-1.79759c1.50339,-1.01864 -2.30519,-0.50934 -0.45102,-2.15712c1.7289,-0.95872 1.83485,-1.04902 -0.30068,-0.8988c-0.85192,0.05993 -2.12981,-1.3482 -0.90202,-1.43809c1.22777,-0.08987 3.73341,-0.80891 0.90202,-1.07856c-2.83138,-0.26963 -2.9316,-1.498 -1.80406,-1.43808c1.12754,0.05993 5.53749,0.05993 4.35983,-0.35952c-1.17766,-0.41944 -6.56718,-1.44451 -4.51017,-2.51663c0.9772,-0.50933 7.86297,2.19876 5.86322,0.35952c-0.32572,-0.2996 -3.50791,-1.37817 -4.66051,-2.87617c-1.1526,-1.49801 -0.92709,-1.70773 -0.30067,-1.43808c0.62641,0.26963 7.89276,4.22436 6.76526,2.87615c-0.20046,-0.23968 -4.35984,-2.60652 -4.9612,-4.67375c-0.60136,-2.06724 -0.02505,-1.52796 0.45102,-0.89881c0.47606,0.62916 7.3134,6.63728 6.16391,4.67376c-0.3508,-0.5992 -3.40768,-2.99598 -4.05916,-5.3928c-0.65148,-2.3968 -0.15034,-1.73767 0.30068,-1.07856c0.45101,0.65911 7.4181,9.63909 6.31424,6.47136c-0.25056,-0.71903 -2.45555,-2.96604 -2.7061,-5.03328c-0.25056,-2.06725 0.4009,-1.28827 0.75169,-0.53928c0.3508,0.749 5.28694,10.06657 5.41222,8.44874c0,0 0.02506,0.02994 0.15034,0c0.12528,-0.02997 -0.10023,-0.86886 0.15034,-0.71904c0,0 0.10023,-0.65912 0.30067,-0.5393c0.20046,0.11984 0.40091,0.02996 0.45103,-0.71904c0.0501,-0.74898 1.52844,0.11984 1.9544,3.95473c0,0 0.30068,0.38899 0.30068,1.25832c0,0.44941 1.80406,2.63649 2.85644,2.51665c1.05238,-0.11983 2.55577,2.51664 3.00679,2.6964c0.45101,0.17976 1.45327,1.25832 3.00678,0.17976c1.55351,-1.07856 3.08196,-1.43808 1.80407,-1.61784c-1.27788,-0.17976 -1.02731,-0.77896 -0.45101,-0.8988c0.57629,-0.11983 3.08195,-0.17976 2.25509,-0.71904c-0.82687,-0.53929 -1.54114,-3.42053 -0.45103,-2.69641c0.45103,0.2996 2.05276,2.96183 1.80408,1.07856c-0.07518,-0.56923 -1.05238,-1.25832 -0.7517,-3.23567c0.30067,-1.97738 0.71756,-0.40425 0.7517,-0.17976c0.05011,0.32955 1.26567,4.42123 1.50339,2.33687c0.07517,-0.65911 -0.55124,-1.52796 -0.30068,-3.95473c0.25055,-2.42675 0.60135,0 0.60135,0c0,0 0.71491,2.48517 0.60137,3.77497c-0.05013,0.56924 0.65147,0.35952 0.60135,-0.71904c-0.05013,-1.07856 -0.42596,-3.44539 -0.15034,-3.41545c0.27563,0.02997 1.10145,1.60452 0.90204,2.87617c-0.07518,0.47936 1.07743,0.95873 -0.15034,1.97736c-1.22776,1.01863 -2.55577,3.05593 -2.55577,3.05593c0,0 0.29704,1.31666 -1.20271,1.97736c-0.95215,0.41944 -0.15034,1.25832 -0.15034,1.25832z" stroke-opacity="null" stroke-width="1.5" fill="#ffffff"/>
  <text stroke="#000" transform="matrix(1.2135762595228525,0,0,3.3703703880310054,-266.53182815683556,-735.7777975127101) " xml:space="preserve" text-anchor="start" font-family="Helvetica, Arial, sans-serif" font-size="24" id="svg_13" y="248.45313" x="253.5" stroke-opacity="null" stroke-width="0" fill="#ffffff">media store</text>
 </g>
</svg>